<svg xmlns="http://www.w3.org/2000/svg" id="ef2690b5-ae96-4282-9a18-ae12c162d6d4" data-name="Layer 1" width="135.6994" height="135.665" viewBox="0 0 135.6994 135.665"><path d="M96.7461,160.5049a.5.5,0,0,1-.0293-.999,66.7739,66.7739,0,0,0,8.8564-1.12.5.5,0,1,1,.1914.98,67.4823,67.4823,0,0,1-8.9892,1.1377Zm-8.9927-.0713c-.0127,0-.0249,0-.0381-.001a68.5662,68.5662,0,0,1-8.9687-1.2764.5.5,0,1,1,.206-.9785,67.4123,67.4123,0,0,0,8.8379,1.2569.5.5,0,0,1-.0371.999Zm26.605-3.374a.5.5,0,0,1-.1611-.9737,67.0736,67.0736,0,0,0,8.24-3.4326.5005.5005,0,0,1,.4453.8965,68.4014,68.4014,0,0,1-8.3633,3.4834A.5146.5146,0,0,1,114.3584,157.06Zm-44.165-.3272a.5.5,0,0,1-.167-.0283,68.5115,68.5115,0,0,1-8.3189-3.5859.5.5,0,0,1,.4561-.8907,67.2624,67.2624,0,0,0,8.1968,3.5332.5.5,0,0,1-.167.9717Zm60.24-7.6533a.5.5,0,0,1-.2793-.915,67.356,67.356,0,0,0,7.0537-5.4678.5.5,0,1,1,.6641.748,68.3075,68.3075,0,0,1-7.1592,5.55A.4978.4978,0,0,1,130.4336,149.0791Zm-76.209-.5322a.4962.4962,0,0,1-.2847-.09A67.7516,67.7516,0,0,1,46.8647,142.8a.5.5,0,0,1,.6758-.7383,66.7935,66.7935,0,0,0,6.97,5.5752.5.5,0,0,1-.2857.91Zm89.6211-11.3858a.5.5,0,0,1-.3789-.8261,66.63,66.63,0,0,0,5.3486-7.1446.5006.5006,0,0,1,.84.545,67.7383,67.7383,0,0,1-5.4307,7.2519A.4967.4967,0,0,1,143.8457,137.1611ZM40.998,136.4229a.5012.5012,0,0,1-.3847-.18,68.5279,68.5279,0,0,1-5.3208-7.3311.5.5,0,0,1,.8467-.5332,67.2888,67.2888,0,0,0,5.2426,7.2236.5006.5006,0,0,1-.3838.82Zm112.6172-14.3135a.5.5,0,0,1-.4521-.7139,67.2451,67.2451,0,0,0,3.2734-8.3037.5.5,0,1,1,.9531.3047,68.3388,68.3388,0,0,1-3.3222,8.4267A.5009.5009,0,0,1,153.6152,122.1094Zm-122.1782-.875a.5.5,0,0,1-.4551-.292,67.8954,67.8954,0,0,1-3.2168-8.4688.5.5,0,1,1,.9571-.291,66.8929,66.8929,0,0,0,3.1689,8.3438.5005.5005,0,0,1-.4541.708Zm127.6372-16.22a.5524.5524,0,0,1-.0888-.0078.5.5,0,0,1-.4043-.58,67.3856,67.3856,0,0,0,.9775-8.8731.5.5,0,1,1,1,.043,68.5508,68.5508,0,0,1-.9932,9.0058A.5.5,0,0,1,159.0742,105.0146Zm-132.87-.9462a.501.501,0,0,1-.4932-.42,67.86,67.86,0,0,1-.8515-9.02.5.5,0,0,1,.4863-.5136.5059.5059,0,0,1,.5137.4863,66.7662,66.7662,0,0,0,.8388,8.8877.4991.4991,0,0,1-.4135.5732A.4516.4516,0,0,1,26.2046,104.0684Zm133.64-16.9844a.5.5,0,0,1-.497-.4546,66.6659,66.6659,0,0,0-1.4024-8.8159.5.5,0,1,1,.9746-.2227,67.662,67.662,0,0,1,1.4239,8.9478.5.5,0,0,1-.4532.5434A.4551.4551,0,0,1,159.8447,87.084ZM25.7173,86.1284a.5143.5143,0,0,1-.0537-.0029.5.5,0,0,1-.4439-.55,68.4634,68.4634,0,0,1,1.5581-8.9243.5.5,0,0,1,.9717.2373,67.4318,67.4318,0,0,0-1.5356,8.7934A.5.5,0,0,1,25.7173,86.1284ZM155.84,69.5908a.5.5,0,0,1-.4677-.3237,67.62,67.62,0,0,0-3.6914-8.1284.5.5,0,1,1,.8808-.4727,68.5394,68.5394,0,0,1,3.7461,8.2486.4992.4992,0,0,1-.292.644A.492.492,0,0,1,155.84,69.5908ZM29.97,68.6934a.5.5,0,0,1-.4658-.6817A68.1577,68.1577,0,0,1,33.3516,59.81a.5.5,0,1,1,.875.4843,67.157,67.157,0,0,0-3.7911,8.0806A.5.5,0,0,1,29.97,68.6934Zm117.3867-14.919a.4978.4978,0,0,1-.4052-.208,67.0245,67.0245,0,0,0-5.6885-6.8765.5.5,0,0,1,.7266-.6875,67.7824,67.7824,0,0,1,5.7724,6.98.5.5,0,0,1-.4053.792ZM38.6572,52.9932a.5.5,0,0,1-.4009-.7984,67.55,67.55,0,0,1,5.8809-6.8906.5.5,0,0,1,.7149.6992,66.5121,66.5121,0,0,0-5.793,6.7881A.5.5,0,0,1,38.6572,52.9932Zm96.3633-12.2461a.5.5,0,0,1-.3135-.11,66.96,66.96,0,0,0-7.3115-5.12.5.5,0,0,1,.5176-.8555,67.92,67.92,0,0,1,7.4209,5.1958.5.5,0,0,1-.3135.89Zm-83.8242-.5889a.5.5,0,0,1-.3081-.894,68.6879,68.6879,0,0,1,7.4941-5.087.4946.4946,0,0,1,.232-.0683.5007.5007,0,0,1,.1738-.1675,68.66,68.66,0,0,1,8.1274-4.0034.5.5,0,1,1,.3809.9248,67.6634,67.6634,0,0,0-8.0083,3.9448.4936.4936,0,0,0-.4.232,67.7287,67.7287,0,0,0-7.3848,5.0126A.4977.4977,0,0,1,51.1963,40.1582Zm68.47-8.6978a.4944.4944,0,0,1-.1992-.0415,67.49,67.49,0,0,0-8.4033-3.01.5.5,0,0,1,.2734-.9619,68.4227,68.4227,0,0,1,8.5283,3.0552.5.5,0,0,1-.1992.9584ZM75.6294,28.0352a.5.5,0,0,1-.1265-.9834A67.5992,67.5992,0,0,1,84.4,25.3423a.4945.4945,0,0,1,.5571.435.5.5,0,0,1-.435.5572,66.7051,66.7051,0,0,0-8.7657,1.6841A.5.5,0,0,1,75.6294,28.0352Zm26.78-1.4927a.4646.4646,0,0,1-.0733-.0054,67.3168,67.3168,0,0,0-8.8994-.6973.5.5,0,0,1,.0059-1h.0058a68.2421,68.2421,0,0,1,9.0323.7081.5.5,0,0,1-.0713.9946Z" transform="translate(-24.8597 -24.8398)"></path><path d="M92.8311,153.4668a60.7311,60.7311,0,1,1,30.2724-8.127A60.786,60.786,0,0,1,92.8311,153.4668ZM92.6289,32.9917a59.7408,59.7408,0,1,0,51.8457,29.8628A59.3757,59.3757,0,0,0,92.6289,32.9917Z" transform="translate(-24.8597 -24.8398)"></path></svg>