<svg xmlns="http://www.w3.org/2000/svg" width="140" height="21" viewBox="0 0 140 21" fill="none"><path d="M22.6416 16V15.6045L23.9951 15.5166V3.94141L22.6416 3.85352V3.45801H27.3438C27.8477 3.45801 28.3047 3.48145 28.7148 3.52832C29.1309 3.5752 29.541 3.66309 29.9453 3.79199C30.3496 3.91504 30.6865 4.0791 30.9561 4.28418C31.2314 4.48926 31.4512 4.76172 31.6152 5.10156C31.7852 5.43555 31.8701 5.82812 31.8701 6.2793C31.8701 6.63672 31.791 6.96777 31.6328 7.27246C31.4746 7.57129 31.2725 7.82031 31.0264 8.01953C30.7861 8.21875 30.5049 8.39746 30.1826 8.55566C29.8604 8.70801 29.5498 8.8252 29.251 8.90723C28.9521 8.98926 28.6533 9.05078 28.3545 9.0918V9.12695C28.9463 9.12695 29.4912 9.19727 29.9893 9.33789C30.4873 9.47266 30.9209 9.6748 31.29 9.94434C31.665 10.2139 31.958 10.5684 32.1689 11.0078C32.3799 11.4414 32.4854 11.9365 32.4854 12.4932C32.4854 12.9971 32.3945 13.4512 32.2129 13.8555C32.0312 14.2539 31.7881 14.585 31.4834 14.8486C31.1787 15.1123 30.8184 15.332 30.4023 15.5078C29.9922 15.6836 29.5645 15.8096 29.1191 15.8857C28.6738 15.9619 28.208 16 27.7217 16H22.6416ZM26.2451 15.4287C26.5615 15.4873 26.8662 15.5166 27.1592 15.5166C28.0908 15.5166 28.8203 15.2471 29.3477 14.708C29.8809 14.1689 30.1475 13.4365 30.1475 12.5107C30.1475 11.5205 29.8721 10.7646 29.3213 10.2432C28.7764 9.71582 28.0205 9.45215 27.0537 9.45215C26.7783 9.45215 26.5088 9.47266 26.2451 9.51367V15.4287ZM26.2451 8.91602C26.4912 8.95117 26.7168 8.96875 26.9219 8.96875C28.6973 8.96875 29.585 8.08984 29.585 6.33203C29.585 5.58203 29.3857 4.99609 28.9873 4.57422C28.5889 4.15234 27.9795 3.94141 27.1592 3.94141C26.8662 3.94141 26.5615 3.9707 26.2451 4.0293V8.91602Z" fill="#134D79"></path><path d="M33.9004 14.0928C33.9004 13.8057 33.9443 13.5303 34.0322 13.2666C34.126 12.9971 34.2754 12.7393 34.4805 12.4932C34.6855 12.2471 34.9375 12.0332 35.2363 11.8516C35.5352 11.6699 35.9043 11.5264 36.3438 11.4209C36.7891 11.3096 37.2812 11.2539 37.8203 11.2539C38.1074 11.2539 38.3799 11.2656 38.6377 11.2891V10.0762C38.6377 9.68945 38.6289 9.37598 38.6113 9.13574C38.5996 8.89551 38.5645 8.64941 38.5059 8.39746C38.4473 8.13965 38.3623 7.94336 38.251 7.80859C38.1455 7.66797 37.9932 7.55371 37.7939 7.46582C37.6006 7.37207 37.3633 7.3252 37.082 7.3252C36.2266 7.3252 35.6025 7.66211 35.21 8.33594V8.37109C35.3096 8.35352 35.4004 8.34473 35.4824 8.34473C35.7871 8.34473 36.0273 8.43848 36.2031 8.62598C36.3789 8.81348 36.4668 9.08301 36.4668 9.43457C36.4668 9.73926 36.3613 9.99707 36.1504 10.208C35.9395 10.4131 35.6758 10.5156 35.3594 10.5156C35.0137 10.5156 34.7412 10.3984 34.542 10.1641C34.3428 9.92969 34.2432 9.6543 34.2432 9.33789C34.2432 8.64648 34.5596 8.06934 35.1924 7.60645C35.8311 7.14355 36.5635 6.91211 37.3896 6.91211C37.9756 6.91211 38.4736 6.97363 38.8838 7.09668C39.2998 7.21973 39.6309 7.38379 39.877 7.58887C40.123 7.78809 40.3135 8.06348 40.4482 8.41504C40.5889 8.76074 40.6797 9.11523 40.7207 9.47852C40.7676 9.8418 40.791 10.2871 40.791 10.8145V15.5518L41.6963 15.6396V16H38.9014L38.6553 14.6113H38.6377C38.3506 15.168 38.002 15.584 37.5918 15.8594C37.1875 16.1289 36.6953 16.2637 36.1152 16.2637C35.4004 16.2637 34.8525 16.0498 34.4717 15.6221C34.0908 15.1943 33.9004 14.6846 33.9004 14.0928ZM36.0273 13.9082C36.0273 14.377 36.1152 14.7578 36.291 15.0508C36.4668 15.3379 36.7246 15.4814 37.0645 15.4814C37.4629 15.4814 37.8232 15.2324 38.1455 14.7344C38.4736 14.2363 38.6377 13.627 38.6377 12.9062V11.6934C38.4033 11.6641 38.2129 11.6494 38.0664 11.6494C37.7617 11.6494 37.4893 11.6904 37.249 11.7725C37.0146 11.8545 36.8271 11.9658 36.6865 12.1064C36.5459 12.2471 36.4287 12.3965 36.335 12.5547C36.2412 12.707 36.1738 12.877 36.1328 13.0645C36.0918 13.252 36.0625 13.4072 36.0449 13.5303C36.0332 13.6533 36.0273 13.7793 36.0273 13.9082Z" fill="#134D79"></path><path d="M42.6104 7.87891V7.51855L44.4473 7.3252L45.6865 7L45.8096 7.25488V8.7666H45.8447C45.9619 8.53223 46.1055 8.30371 46.2754 8.08105C46.4453 7.8584 46.6299 7.66211 46.8291 7.49219C47.0342 7.31641 47.251 7.17578 47.4795 7.07031C47.708 6.96484 47.9395 6.91211 48.1738 6.91211C48.6309 6.91211 48.9824 7.03516 49.2285 7.28125C49.4805 7.52148 49.6064 7.84375 49.6064 8.24805C49.6064 8.41797 49.5801 8.57617 49.5273 8.72266C49.4746 8.86328 49.3984 8.98633 49.2988 9.0918C49.2051 9.19727 49.0879 9.28223 48.9473 9.34668C48.8125 9.40527 48.6631 9.43457 48.499 9.43457C48.3232 9.43457 48.165 9.40527 48.0244 9.34668C47.8838 9.28809 47.7637 9.20898 47.6641 9.10938C47.5703 9.00977 47.4971 8.89551 47.4443 8.7666C47.3916 8.63184 47.3652 8.48828 47.3652 8.33594C47.3652 8.02539 47.4297 7.79688 47.5586 7.65039V7.59766C47.3477 7.64453 47.1396 7.75586 46.9346 7.93164C46.7354 8.10742 46.5537 8.34766 46.3896 8.65234C46.2256 8.95117 46.0938 9.31445 45.9941 9.74219C45.8945 10.1641 45.8447 10.6416 45.8447 11.1748V15.5518L46.75 15.6396V16H42.7861V15.6396L43.6914 15.5518V7.87891H42.6104Z" fill="#134D79"></path><path d="M50.2305 7.51855L52.0674 7.3252L53.3066 7L53.4648 7.25488L53.4297 8.44141H53.4648C54.1621 7.42188 55.0645 6.91211 56.1719 6.91211C56.3828 6.91211 56.585 6.92969 56.7783 6.96484C56.9717 7 57.1855 7.0791 57.4199 7.20215C57.6543 7.3252 57.8564 7.48633 58.0264 7.68555C58.1963 7.88477 58.3398 8.16895 58.457 8.53809C58.5742 8.90723 58.6328 9.33789 58.6328 9.83008V15.5518L59.5293 15.6396V16H55.5742V15.6396L56.4707 15.5518V9.5752C56.4707 8.32715 56.0693 7.70312 55.2666 7.70312C54.7393 7.70312 54.3057 7.94336 53.9658 8.42383C53.6318 8.9043 53.4648 9.53418 53.4648 10.3135V15.5518L54.3701 15.6396V16H50.4062V15.6396L51.3115 15.5518V7.86133L50.248 7.87891L50.2305 7.51855Z" fill="#134D79"></path><path d="M60.6807 11.5879C60.6807 11.1309 60.7246 10.6855 60.8125 10.252C60.9004 9.8125 61.0439 9.39062 61.2432 8.98633C61.4424 8.58203 61.6855 8.22754 61.9727 7.92285C62.2598 7.61816 62.6143 7.375 63.0361 7.19336C63.4639 7.00586 63.9355 6.91211 64.4512 6.91211C64.9375 6.91211 65.374 6.98242 65.7607 7.12305C66.1475 7.25781 66.4697 7.44824 66.7275 7.69434C66.9854 7.94043 67.1992 8.24219 67.3691 8.59961C67.5391 8.95117 67.6592 9.33496 67.7295 9.75098C67.8057 10.1611 67.8438 10.6123 67.8438 11.1045L67.6064 11.3242H62.9307V11.8604C62.9307 14.415 63.6572 15.6924 65.1104 15.6924C66.1416 15.6924 66.9648 15.1768 67.5801 14.1455L67.9229 14.3564C67.167 15.6279 66.0918 16.2637 64.6973 16.2637C63.3496 16.2637 62.3418 15.8477 61.6738 15.0156C61.0117 14.1836 60.6807 13.041 60.6807 11.5879ZM62.9307 10.9287L65.7695 10.8145C65.7871 10.5156 65.7959 10.2285 65.7959 9.95312C65.7959 9.10352 65.6934 8.4502 65.4883 7.99316C65.2891 7.53613 64.9551 7.30762 64.4863 7.30762C64.2051 7.30762 63.9619 7.40137 63.7568 7.58887C63.5576 7.77051 63.4023 8.03418 63.291 8.37988C63.1797 8.72559 63.0947 9.10352 63.0361 9.51367C62.9834 9.91797 62.9482 10.3896 62.9307 10.9287Z" fill="#134D79"></path><path d="M72.2822 15.833C72.9502 15.833 73.4424 15.71 73.7588 15.4639C74.0811 15.2178 74.2422 14.9102 74.2422 14.541C74.2422 14.3477 74.21 14.1777 74.1455 14.0312C74.0869 13.8789 73.9873 13.7354 73.8467 13.6006C73.7119 13.46 73.5303 13.3193 73.3018 13.1787C73.0791 13.0322 72.8008 12.8682 72.4668 12.6865C72.1738 12.5166 71.8633 12.3408 71.5352 12.1592C71.207 11.9717 70.9023 11.7578 70.6211 11.5176C70.3457 11.2715 70.1143 10.9873 69.9268 10.665C69.7451 10.3428 69.6543 9.95605 69.6543 9.50488C69.6543 9.10645 69.7305 8.74609 69.8828 8.42383C70.0352 8.10156 70.2461 7.8291 70.5156 7.60645C70.791 7.37793 71.1162 7.20215 71.4912 7.0791C71.8721 6.95605 72.2881 6.89453 72.7393 6.89453C73.0791 6.89453 73.4189 6.93848 73.7588 7.02637C74.1045 7.1084 74.415 7.23438 74.6904 7.4043C74.9658 7.57422 75.1885 7.78516 75.3584 8.03711C75.5283 8.28906 75.6133 8.58203 75.6133 8.91602C75.6133 9.04492 75.5898 9.1709 75.543 9.29395C75.502 9.41699 75.4375 9.52832 75.3496 9.62793C75.2617 9.72754 75.1533 9.80957 75.0244 9.87402C74.9014 9.93262 74.7578 9.96191 74.5938 9.96191C74.2539 9.96191 73.999 9.86816 73.8291 9.68066C73.6592 9.49316 73.5742 9.26465 73.5742 8.99512C73.5742 8.8252 73.5977 8.68164 73.6445 8.56445C73.6914 8.44141 73.7529 8.3418 73.8291 8.26562C73.9111 8.18359 74.002 8.125 74.1016 8.08984C74.207 8.04883 74.3125 8.02832 74.418 8.02832H74.4971V8.01074C74.4385 7.91699 74.3535 7.8291 74.2422 7.74707C74.1309 7.65918 73.999 7.58301 73.8467 7.51855C73.6943 7.44824 73.5244 7.39258 73.3369 7.35156C73.1494 7.31055 72.9502 7.29004 72.7393 7.29004C72.4287 7.29004 72.165 7.33105 71.9482 7.41309C71.7314 7.49512 71.5527 7.60059 71.4121 7.72949C71.2773 7.85254 71.1777 7.99023 71.1133 8.14258C71.0488 8.29492 71.0166 8.44141 71.0166 8.58203C71.0166 8.75195 71.043 8.89844 71.0957 9.02148C71.1484 9.14453 71.2393 9.27051 71.3682 9.39941C71.5029 9.52246 71.6846 9.65723 71.9131 9.80371C72.1475 9.9502 72.4404 10.126 72.792 10.3311C73.1318 10.5068 73.4893 10.6943 73.8643 10.8936C74.2451 11.0928 74.5938 11.3242 74.9102 11.5879C75.2266 11.8457 75.4873 12.1445 75.6924 12.4844C75.9033 12.8184 76.0088 13.2109 76.0088 13.6621C76.0088 14.043 75.9355 14.3916 75.7891 14.708C75.6484 15.0244 75.4258 15.2969 75.1211 15.5254C74.8223 15.7539 74.4385 15.9297 73.9697 16.0527C73.5068 16.1816 72.9561 16.2461 72.3174 16.2461C72.0127 16.2461 71.6875 16.208 71.3418 16.1318C70.9961 16.0557 70.6768 15.9355 70.3838 15.7715C70.0908 15.6016 69.8477 15.3848 69.6543 15.1211C69.4609 14.8516 69.3643 14.5234 69.3643 14.1367C69.3643 13.9727 69.3906 13.8145 69.4434 13.6621C69.4961 13.5098 69.5693 13.375 69.6631 13.2578C69.7627 13.1348 69.8828 13.0381 70.0234 12.9678C70.1641 12.8975 70.3252 12.8623 70.5068 12.8623C70.665 12.8623 70.8057 12.8916 70.9287 12.9502C71.0518 13.0029 71.1543 13.0762 71.2363 13.1699C71.3242 13.2578 71.3916 13.3633 71.4385 13.4863C71.4854 13.6094 71.5117 13.7412 71.5176 13.8818C71.5176 14.0459 71.4883 14.1924 71.4297 14.3213C71.3711 14.4443 71.2949 14.5469 71.2012 14.6289C71.1074 14.7109 70.999 14.7754 70.876 14.8223C70.7588 14.8633 70.6416 14.8838 70.5244 14.8838C70.501 14.8838 70.4746 14.8838 70.4453 14.8838C70.4219 14.8838 70.3984 14.8809 70.375 14.875V14.8926C70.4277 15.0098 70.5068 15.124 70.6123 15.2354C70.7178 15.3467 70.8496 15.4463 71.0078 15.5342C71.1719 15.6221 71.3594 15.6953 71.5703 15.7539C71.7871 15.8066 72.0244 15.833 72.2822 15.833Z" fill="#134D79"></path><path d="M81.335 16V15.6045L82.6885 15.5166V3.94141L81.335 3.85352V3.45801H85.7646C86.9541 3.45801 87.9736 3.60742 88.8232 3.90625C89.6729 4.20508 90.3438 4.63867 90.8359 5.20703C91.334 5.77539 91.6943 6.43457 91.917 7.18457C92.1455 7.93457 92.2598 8.80176 92.2598 9.78613C92.2598 10.4951 92.1865 11.1572 92.04 11.7725C91.8936 12.3818 91.6592 12.9502 91.3369 13.4775C91.0205 13.999 90.6221 14.4473 90.1416 14.8223C89.667 15.1914 89.0811 15.4814 88.3838 15.6924C87.6924 15.8975 86.916 16 86.0547 16H81.335ZM84.9385 15.4287C85.2549 15.4873 85.542 15.5166 85.7998 15.5166C86.3975 15.5166 86.9277 15.4199 87.3906 15.2266C87.8594 15.0332 88.249 14.7666 88.5596 14.4268C88.876 14.0811 89.1367 13.6621 89.3418 13.1699C89.5469 12.6719 89.6934 12.1328 89.7812 11.5527C89.875 10.9727 89.9219 10.3369 89.9219 9.64551C89.9219 8.96582 89.8896 8.35938 89.8252 7.82617C89.7607 7.29297 89.6377 6.77441 89.4561 6.27051C89.2803 5.7666 89.0459 5.35059 88.7529 5.02246C88.46 4.69434 88.0732 4.43359 87.5928 4.24023C87.1123 4.04102 86.5498 3.94141 85.9053 3.94141C85.5771 3.94141 85.2549 3.9707 84.9385 4.0293V15.4287Z" fill="#134D79"></path><path d="M93.8682 11.5879C93.8682 11.1309 93.9121 10.6855 94 10.252C94.0879 9.8125 94.2314 9.39062 94.4307 8.98633C94.6299 8.58203 94.873 8.22754 95.1602 7.92285C95.4473 7.61816 95.8018 7.375 96.2236 7.19336C96.6514 7.00586 97.123 6.91211 97.6387 6.91211C98.125 6.91211 98.5615 6.98242 98.9482 7.12305C99.335 7.25781 99.6572 7.44824 99.915 7.69434C100.173 7.94043 100.387 8.24219 100.557 8.59961C100.727 8.95117 100.847 9.33496 100.917 9.75098C100.993 10.1611 101.031 10.6123 101.031 11.1045L100.794 11.3242H96.1182V11.8604C96.1182 14.415 96.8447 15.6924 98.2979 15.6924C99.3291 15.6924 100.152 15.1768 100.768 14.1455L101.11 14.3564C100.354 15.6279 99.2793 16.2637 97.8848 16.2637C96.5371 16.2637 95.5293 15.8477 94.8613 15.0156C94.1992 14.1836 93.8682 13.041 93.8682 11.5879ZM96.1182 10.9287L98.957 10.8145C98.9746 10.5156 98.9834 10.2285 98.9834 9.95312C98.9834 9.10352 98.8809 8.4502 98.6758 7.99316C98.4766 7.53613 98.1426 7.30762 97.6738 7.30762C97.3926 7.30762 97.1494 7.40137 96.9443 7.58887C96.7451 7.77051 96.5898 8.03418 96.4785 8.37988C96.3672 8.72559 96.2822 9.10352 96.2236 9.51367C96.1709 9.91797 96.1357 10.3896 96.1182 10.9287Z" fill="#134D79"></path><path d="M102.279 7.51855L104.116 7.3252L105.355 7L105.514 7.25488L105.479 8.44141H105.514C106.211 7.42188 107.113 6.91211 108.221 6.91211C108.432 6.91211 108.634 6.92969 108.827 6.96484C109.021 7 109.234 7.0791 109.469 7.20215C109.703 7.3252 109.905 7.48633 110.075 7.68555C110.245 7.88477 110.389 8.16895 110.506 8.53809C110.623 8.90723 110.682 9.33789 110.682 9.83008V15.5518L111.578 15.6396V16H107.623V15.6396L108.52 15.5518V9.5752C108.52 8.32715 108.118 7.70312 107.315 7.70312C106.788 7.70312 106.354 7.94336 106.015 8.42383C105.681 8.9043 105.514 9.53418 105.514 10.3135V15.5518L106.419 15.6396V16H102.455V15.6396L103.36 15.5518V7.86133L102.297 7.87891L102.279 7.51855Z" fill="#134D79"></path><path d="M112.062 7.55371V7.17578H113.556V5.2334L114.312 5.1543L115.551 4.8291L115.718 5.08398V7.17578H117.643V7.55371L115.718 7.63281V13.8203C115.718 14.1777 115.759 14.4766 115.841 14.7168C115.929 14.9512 116.04 15.1123 116.175 15.2002C116.315 15.2881 116.427 15.3438 116.509 15.3672C116.597 15.3906 116.688 15.4023 116.781 15.4023C116.963 15.4023 117.136 15.3643 117.3 15.2881C117.47 15.2061 117.622 15.0889 117.757 14.9365C117.897 14.7842 118.012 14.6465 118.1 14.5234C118.188 14.3945 118.287 14.2393 118.398 14.0576L118.776 14.2861C118.466 14.8018 118.196 15.1768 117.968 15.4111C117.411 15.9795 116.77 16.2637 116.043 16.2637C115.768 16.2637 115.521 16.2432 115.305 16.2021C115.094 16.167 114.874 16.0879 114.646 15.9648C114.417 15.8418 114.227 15.6777 114.074 15.4727C113.922 15.2617 113.796 14.9746 113.696 14.6113C113.603 14.2422 113.556 13.8115 113.556 13.3193V7.63281L112.062 7.55371Z" fill="#134D79"></path><path d="M119.277 14.0928C119.277 13.8057 119.321 13.5303 119.409 13.2666C119.503 12.9971 119.652 12.7393 119.857 12.4932C120.062 12.2471 120.314 12.0332 120.613 11.8516C120.912 11.6699 121.281 11.5264 121.721 11.4209C122.166 11.3096 122.658 11.2539 123.197 11.2539C123.484 11.2539 123.757 11.2656 124.015 11.2891V10.0762C124.015 9.68945 124.006 9.37598 123.988 9.13574C123.977 8.89551 123.941 8.64941 123.883 8.39746C123.824 8.13965 123.739 7.94336 123.628 7.80859C123.522 7.66797 123.37 7.55371 123.171 7.46582C122.978 7.37207 122.74 7.3252 122.459 7.3252C121.604 7.3252 120.979 7.66211 120.587 8.33594V8.37109C120.687 8.35352 120.777 8.34473 120.859 8.34473C121.164 8.34473 121.404 8.43848 121.58 8.62598C121.756 8.81348 121.844 9.08301 121.844 9.43457C121.844 9.73926 121.738 9.99707 121.527 10.208C121.316 10.4131 121.053 10.5156 120.736 10.5156C120.391 10.5156 120.118 10.3984 119.919 10.1641C119.72 9.92969 119.62 9.6543 119.62 9.33789C119.62 8.64648 119.937 8.06934 120.569 7.60645C121.208 7.14355 121.94 6.91211 122.767 6.91211C123.353 6.91211 123.851 6.97363 124.261 7.09668C124.677 7.21973 125.008 7.38379 125.254 7.58887C125.5 7.78809 125.69 8.06348 125.825 8.41504C125.966 8.76074 126.057 9.11523 126.098 9.47852C126.145 9.8418 126.168 10.2871 126.168 10.8145V15.5518L127.073 15.6396V16H124.278L124.032 14.6113H124.015C123.728 15.168 123.379 15.584 122.969 15.8594C122.564 16.1289 122.072 16.2637 121.492 16.2637C120.777 16.2637 120.229 16.0498 119.849 15.6221C119.468 15.1943 119.277 14.6846 119.277 14.0928ZM121.404 13.9082C121.404 14.377 121.492 14.7578 121.668 15.0508C121.844 15.3379 122.102 15.4814 122.441 15.4814C122.84 15.4814 123.2 15.2324 123.522 14.7344C123.851 14.2363 124.015 13.627 124.015 12.9062V11.6934C123.78 11.6641 123.59 11.6494 123.443 11.6494C123.139 11.6494 122.866 11.6904 122.626 11.7725C122.392 11.8545 122.204 11.9658 122.063 12.1064C121.923 12.2471 121.806 12.3965 121.712 12.5547C121.618 12.707 121.551 12.877 121.51 13.0645C121.469 13.252 121.439 13.4072 121.422 13.5303C121.41 13.6533 121.404 13.7793 121.404 13.9082Z" fill="#134D79"></path><path d="M127.847 4.15234V3.79199L129.684 3.59863L130.923 3.27344L131.081 3.52832V15.5518L131.986 15.6396V16H128.022V15.6396L128.928 15.5518V4.15234H127.847Z" fill="#134D79"></path><path d="M132.558 7.55371V7.17578H134.052V5.2334L134.808 5.1543L136.047 4.8291L136.214 5.08398V7.17578H138.139V7.55371L136.214 7.63281V13.8203C136.214 14.1777 136.255 14.4766 136.337 14.7168C136.425 14.9512 136.536 15.1123 136.671 15.2002C136.812 15.2881 136.923 15.3438 137.005 15.3672C137.093 15.3906 137.184 15.4023 137.277 15.4023C137.459 15.4023 137.632 15.3643 137.796 15.2881C137.966 15.2061 138.118 15.0889 138.253 14.9365C138.394 14.7842 138.508 14.6465 138.596 14.5234C138.684 14.3945 138.783 14.2393 138.895 14.0576L139.272 14.2861C138.962 14.8018 138.692 15.1768 138.464 15.4111C137.907 15.9795 137.266 16.2637 136.539 16.2637C136.264 16.2637 136.018 16.2432 135.801 16.2021C135.59 16.167 135.37 16.0879 135.142 15.9648C134.913 15.8418 134.723 15.6777 134.57 15.4727C134.418 15.2617 134.292 14.9746 134.192 14.6113C134.099 14.2422 134.052 13.8115 134.052 13.3193V7.63281L132.558 7.55371Z" fill="#134D79"></path><path d="M13.6894 9.9056C14.1214 11.7897 14.2287 13.8262 13.7525 15.7743C12.8781 19.3507 11.8588 20.2448 10.6197 19.9467C10.1387 19.8311 9.15275 18.7273 8.1775 17.0365C6.74152 18.7029 5.49513 19.9467 5.00898 19.9467C3.84317 19.9467 2.45912 16.9664 1.29332 10.4098C0.127521 3.85313 2.67737 1.17086 4.71753 1.17086C5.65497 1.17086 6.73095 1.35964 7.87469 1.91068C9.99566 0.342917 12.9264 1.07146 13.7525 2.06494C14.9915 3.55508 15.7926 6.83343 13.7525 9.81373C13.7318 9.84393 13.7108 9.87456 13.6894 9.9056Z" fill="#D5EDFB"></path><path fill-rule="evenodd" clip-rule="evenodd" d="M8.67427 1.88381C9.89726 2.59889 11.1621 3.71763 12.3995 5.40472L12.4155 5.42655L12.4284 5.45034C12.9769 6.45988 13.4746 7.63331 13.8406 8.89643C15.2242 6.27942 14.4885 3.57581 13.4449 2.32067C13.1256 1.93662 12.3063 1.53027 11.2593 1.42534C10.4264 1.34187 9.50656 1.45646 8.67427 1.88381ZM14.1177 9.98794C16.2242 6.85975 15.3948 3.41446 14.06 1.8092C13.5533 1.19976 12.4942 0.745095 11.3391 0.629327C10.2287 0.518047 8.94756 0.709567 7.83399 1.45072C6.71131 0.948009 5.65113 0.770851 4.71752 0.770851C3.5128 0.770851 2.24385 1.55943 1.44558 3.15236C0.647882 4.74416 0.307188 7.14855 0.899497 10.4798C1.48442 13.7695 2.1278 16.1853 2.78071 17.7879C3.10639 18.5873 3.44296 19.2059 3.79073 19.6317C4.13137 20.0487 4.5387 20.3467 5.00897 20.3467C5.14881 20.3467 5.28025 20.3038 5.38897 20.2552C5.50182 20.2048 5.61779 20.1357 5.73371 20.056C5.96543 19.8969 6.22853 19.6738 6.51116 19.4078C6.98173 18.9651 7.53104 18.3801 8.11677 17.7152C8.51889 18.3664 8.9177 18.9181 9.27978 19.342C9.50332 19.6038 9.71821 19.8231 9.91618 19.9882C10.1042 20.145 10.3141 20.2846 10.5262 20.3356C10.894 20.4241 11.2696 20.4291 11.6394 20.3016C12.0081 20.1744 12.3371 19.9271 12.6322 19.567C13.2109 18.8609 13.701 17.6691 14.141 15.8693C14.621 13.9062 14.5277 11.8691 14.1177 9.98794ZM13.2593 9.82415C12.9068 8.36212 12.3565 6.99856 11.7384 5.85603C10.4376 4.08826 9.13278 3.01287 7.92218 2.3819C7.04958 3.11048 6.32294 4.33006 6.06154 6.29023C5.57459 9.9418 6.83777 13.7185 8.24682 16.3389C10.0685 14.1829 12.1112 11.4763 13.2593 9.82415ZM8.66697 17.0801C10.3422 15.1163 12.2343 12.6417 13.4786 10.901C13.7393 12.4726 13.7475 14.1104 13.3639 15.6793C12.9296 17.4559 12.4728 18.4993 12.0135 19.0599C11.7896 19.333 11.5768 19.4769 11.3785 19.5453C11.1814 19.6133 10.9649 19.6184 10.7132 19.5578C10.6848 19.551 10.591 19.5093 10.4285 19.3737C10.2758 19.2465 10.0931 19.0625 9.88811 18.8225C9.51969 18.3911 9.09666 17.799 8.66697 17.0801ZM7.69022 16.988C6.17936 14.278 4.734 10.1931 5.26856 6.18449C5.52532 4.25905 6.21284 2.91262 7.12652 2.02296C6.25699 1.69042 5.44208 1.57085 4.71752 1.57085C3.8821 1.57085 2.85605 2.12341 2.1608 3.51077C1.46498 4.89927 1.11365 7.11434 1.68714 10.3398C2.26802 13.6067 2.89957 15.9593 3.52158 17.4861C3.83337 18.2514 4.13426 18.7876 4.41031 19.1256C4.68819 19.4658 4.88872 19.5439 5.00256 19.5467C5.0072 19.5456 5.02623 19.5411 5.06264 19.5248C5.1166 19.5007 5.18899 19.4597 5.28073 19.3966C5.46431 19.2705 5.69371 19.0785 5.96294 18.8252C6.45336 18.3637 7.04656 17.7269 7.69022 16.988Z" fill="#134D79"></path></svg>