<svg xmlns="http://www.w3.org/2000/svg" xmlns:xlink="http://www.w3.org/1999/xlink" id="b52074f2-9f69-4af3-9f37-2647c7733fc8" x="0px" y="0px" viewBox="0 0 62.865 60.7682" style="enable-background:new 0 0 62.865 60.7682;" xml:space="preserve"><path d="M60.8785,22.3939H39.1006l-0.2215-0.6818L32.371,1.682c-0.1684-0.5182-0.725-0.8018-1.2432-0.6334  c-0.3004,0.0976-0.5358,0.3331-0.6334,0.6334L23.986,21.7121l-0.2215,0.6818H1.9867c-0.5449,0-0.9866,0.4417-0.9866,0.9866  c0,0.3158,0.1512,0.6125,0.4067,0.7982l17.0386,12.3799l0.5799,0.4213l-0.2215,0.6818l-6.5081,20.0297  c-0.1683,0.5182,0.1153,1.0748,0.6336,1.2432c0.3003,0.0976,0.6292,0.0455,0.8847-0.1401l17.0392-12.3793l0.5799-0.4213  l0.5797,0.4213l17.0387,12.3793c0.4408,0.3203,1.0578,0.2227,1.3782-0.2181c0.1857-0.2556,0.2378-0.5846,0.1402-0.8851  l-6.5087-20.0302l-0.2215-0.6818l0.5799-0.4213l17.0392-12.3794c0.4408-0.3203,0.5385-0.9373,0.2182-1.3781  c-0.1856-0.2555-0.4824-0.4067-0.7982-0.4067L60.8785,22.3939z"></path><path style="fill:none;stroke:#000000;stroke-width:2;" d="M38.8791,21.7121l0.2215,0.6818h21.7779  c0.5449,0,0.9866,0.4417,0.9866,0.9866c0,0.3158-0.1512,0.6125-0.4067,0.7982L44.4202,36.558l-0.5799,0.4213l0.2215,0.6818  L50.57,57.6912c0.1685,0.5182-0.1151,1.0749-0.6333,1.2433c-0.3004,0.0977-0.6295,0.0456-0.8851-0.1402L32.0125,46.4152  l-0.5798-0.4213l-0.5799,0.4213L13.8136,58.7945c-0.4409,0.3202-1.0579,0.2225-1.3781-0.2184  c-0.1856-0.2555-0.2377-0.5843-0.1401-0.8847l6.5081-20.0297l0.2215-0.6818l-0.5799-0.4213L1.4068,24.1787  c-0.4408-0.3203-0.5385-0.9373-0.2182-1.3781c0.1856-0.2555,0.4824-0.4067,0.7982-0.4067h21.7778l0.2215-0.6818L30.4943,1.682  c0.1684-0.5182,0.725-0.8018,1.2432-0.6334c0.3004,0.0976,0.5358,0.3331,0.6334,0.6334L38.8791,21.7121z"></path></svg>