<svg xmlns="http://www.w3.org/2000/svg" id="effed4c0-645e-45c0-a49b-4e23f3f5a7c8" data-name="Layer 1" width="48" height="67.4995" viewBox="0 0 48 67.4995"><path d="M46.8161,20.6445A21.5642,21.5642,0,0,0,41.3417,8.756,22.5587,22.5587,0,0,0,20.55,1.2646,22.04,22.04,0,0,0,5.8137,9.7875a21.2767,21.2767,0,0,0-4.23,18.4841,50.3654,50.3654,0,0,0,5.0319,12.54A130.87,130.87,0,0,0,18.4766,58.9429c1.7972,2.3343,3.622,4.6414,5.502,7.0571a2.75,2.75,0,0,0,.3318-.3529A179.3166,179.3166,0,0,0,39.6828,43.6344a73.8342,73.8342,0,0,0,5.4467-11.21A23.828,23.828,0,0,0,46.8161,20.6445Zm-22.81,14.6842A12.33,12.33,0,0,1,11.5646,23.1145a12.4438,12.4438,0,0,1,24.8834,0A12.3128,12.3128,0,0,1,24.0063,35.3287Z" transform="translate(0 0)"></path><path d="M46.8161,20.6445A21.5642,21.5642,0,0,0,41.3417,8.756,22.5589,22.5589,0,0,0,20.55,1.2646,22.04,22.04,0,0,0,5.8137,9.7875a21.2767,21.2767,0,0,0-4.23,18.4841,50.3619,50.3619,0,0,0,5.032,12.54,130.86,130.86,0,0,0,11.861,18.1313c1.7972,2.3343,3.622,4.6414,5.502,7.0571a2.75,2.75,0,0,0,.3318-.3529A179.3166,179.3166,0,0,0,39.6828,43.6344a73.8342,73.8342,0,0,0,5.4467-11.21A23.828,23.828,0,0,0,46.8161,20.6445Zm-22.81,14.6842A12.33,12.33,0,0,1,11.5646,23.1145a12.4438,12.4438,0,0,1,24.8834,0A12.3128,12.3128,0,0,1,24.0063,35.3287Z" transform="translate(0 0)" style="fill:none;stroke:#010202;stroke-miterlimit:10;stroke-width:2px"></path></svg>