<svg xmlns="http://www.w3.org/2000/svg" id="b47959af-67da-4433-96a5-dfd41540586c" data-name="Layer 1" width="91" height="74" viewBox="0 0 91 74"><path d="M22.5993,35.4959q0-9.6259,3.6159-14.1382,3.9172-4.8129,11.7517-4.813V0Q19.2847,0,9.6424,11.13,0,21.9594,0,41.2114A114.5052,114.5052,0,0,0,5.1225,74H40.0762V40.9106H22.5993Z"></path><path d="M73.5232,40.9106V35.4959q0-9.6259,3.6159-14.1382,3.9173-4.8129,11.7516-4.813V0Q70.2087,0,60.5662,11.13q-9.6423,10.8293-9.6424,30.0813A114.5055,114.5055,0,0,0,56.0464,74H91V40.9106Z"></path></svg>