<svg xmlns="http://www.w3.org/2000/svg" id="bafa87ff-5f2f-47e0-ae98-68d82e911e29" data-name="Layer 1" width="233.2332" height="153.2855" viewBox="0 0 233.2332 153.2855"><path d="M233.2,151.3c-8-18-22.4-32.7-39.5-42.2-17.2-9.5-37.3-13.8-56.8-11.1-.62.0842-1.2355.2007-1.8536.3-.7381-2.806-1.6234-5.556-2.5464-8.2-3.3092-9.1924-7.2207-18.9667-14.8976-25.3806C120.5172,55.8,118.7815,46.1175,114.9,37.8c-4.6-9.8-12.1-17.8-20.8-24A76.4073,76.4073,0,0,0,62.9.8,59.5085,59.5085,0,0,0,31.6,3.9,56.5545,56.5545,0,0,0,7.5,21.3,49.94,49.94,0,0,0,.2,33.7c-.7,1.5,1.7,2.1,2.3.6C9.7,16.8,27.7,4.8,46.3,2.8,67.1.6,88.8,9.7,102.9,25c6.5,7.1,11.7,16.1,13.1,25.8a30.43,30.43,0,0,1-.7538,12.136C106.3814,56.897,95.0019,56.3093,84.6,57.3a91.7806,91.7806,0,0,0-16.5,2.8c-5.3,1.5-10.5,3.9-14,8.3-3.1,4-4.8,9.3-3.1,14.2,1.6,4.7,5.7,8,10.2,9.7,5.7,2.1,12,1.4,17.7-.1a112.4931,112.4931,0,0,0,15.7-5.5c9.1906-4.0518,17.8847-10.0629,22.0451-19.4689A37.8551,37.8551,0,0,1,124.8,78.3a106.5468,106.5468,0,0,1,6,14.8c.6154,1.8463,1.1892,3.7327,1.6928,5.6434A69.47,69.47,0,0,0,107.8,108.6a51.3369,51.3369,0,0,0-11.3,10c-3.3,4-6.7,8.9-7.7,14.1a11.3478,11.3478,0,0,0,5.8,12.5c4.6,2.6,10,2.4,14.9.6,5.4-2.1,10.2-5.6,14.7-9.1a34.6389,34.6389,0,0,0,10.5-12.9c3.1218-7.3294,2.693-15.3486.9413-23.0595,15.8222-2.5754,32.2634-.1972,47.0587,5.8595a91.7377,91.7377,0,0,1,41.9,34.2,83.7774,83.7774,0,0,1,6.4,11.8C231.7,154.1,233.8,152.8,233.2,151.3ZM106.8,76.2c-7.4,6.6-17.2,10.2-26.5,13-5.5,1.6-11.5,2.9-17.1,1.3-4.3-1.2-8.6-4.2-10.1-8.7-1.6-4.8.6-9.9,4.1-13.4,3.9-3.9,9.3-5.6,14.5-6.7,9.9-2.1,20.7-3.5,30.6-1.4a32.6106,32.6106,0,0,1,12.0978,5.1345A29.544,29.544,0,0,1,106.8,76.2ZM134.3,109a28.3487,28.3487,0,0,1-2.9,15.7c-2.5,4.7-6.5,8.3-10.7,11.5-4.4,3.3-9.2,6.8-14.7,8.1-4.4,1-9.4.2-12.6-3.1-4-4.2-2-10.1.5-14.5a43.4958,43.4958,0,0,1,8.9-11.1c7.2-6.5,16.2-10.8,25.5-13.3,1.5882-.4235,3.1893-.7743,4.7953-1.0917A53.3905,53.3905,0,0,1,134.3,109Z" transform="translate(-0.0733 0.0203)"></path></svg>