<svg xmlns="http://www.w3.org/2000/svg" id="b27b4ed1-660a-42a9-825a-478791608acc" data-name="Layer 1" width="294.9633" height="218.2231" viewBox="0 0 294.9633 218.2231"><path d="M310.214,147.092c-4.018-8.525-11.259-17.942-21.194-27.67-19.864-19.4493-50.334-39.9813-86.707-56.948s-71.685-27.1192-99.351-29.8415c-13.838-1.3616-25.7067-.8585-34.8205,1.5416-9.1213,2.4021-15.3381,6.66-18.1544,12.6974s-2.0837,13.5369,1.937,22.0692c4.0174,8.5254,11.2586,17.9426,21.1941,27.67C92.9822,116.06,123.452,136.592,159.825,153.559s71.684,27.119,99.351,29.842c13.838,1.361,25.706.858,34.82-1.542,9.122-2.402,15.338-6.66,18.155-12.697S314.234,155.625,310.214,147.092Z" transform="translate(-19.8802 -30.8884)"></path><path d="M312.151,169.162c-2.817,6.037-9.033,10.295-18.155,12.697-9.114,2.4-20.982,2.903-34.82,1.542-27.667-2.723-62.978-12.875-99.351-29.842S92.9822,116.06,73.1182,96.6112c-9.9355-9.7279-17.1767-19.1451-21.1941-27.67-4.0207-8.5323-4.7533-16.0318-1.937-22.0692S59.02,36.5762,68.1415,34.1741c9.1138-2.4,20.9825-2.9032,34.8205-1.5416,27.666,2.7223,62.978,12.8748,99.351,29.8415s66.843,37.4987,86.707,56.948c9.935,9.728,17.176,19.145,21.194,27.67C314.234,155.625,314.967,163.124,312.151,169.162Z" transform="translate(-19.8802 -30.8884)" style="fill:none;stroke:#000;stroke-width:2px"></path><path d="M298.443,201.145c-2.816,6.037-9.033,10.295-18.154,12.697-9.114,2.4-20.983,2.904-34.821,1.542-27.666-2.722-62.978-12.875-99.351-29.842s-66.8423-37.498-86.7063-56.947c-9.9355-9.728-17.1767-19.145-21.1942-27.671-4.0207-8.5322-4.7532-16.0317-1.9369-22.0691S45.3127,68.56,54.4339,66.1575c9.1139-2.4,20.9825-2.9032,34.8206-1.5416,27.6665,2.7223,62.9775,12.8748,99.3505,29.8415s66.843,37.4986,86.707,56.9476c9.936,9.728,17.177,19.145,21.194,27.671C300.527,187.608,301.259,195.107,298.443,201.145Z" transform="translate(-19.8802 -30.8884)" style="fill:none;stroke:#000;stroke-width:2px"></path><path d="M284.737,233.128c-2.817,6.038-9.034,10.296-18.155,12.698-9.114,2.4-20.982,2.903-34.82,1.541-27.667-2.722-62.978-12.875-99.351-29.841s-66.8428-37.499-86.7069-56.948c-9.9354-9.728-17.1766-19.145-21.1941-27.67-4.0207-8.533-4.7532-16.032-1.937-22.07s9.0332-10.295,18.1544-12.6971c9.1138-2.4,20.9825-2.9032,34.82-1.5416,27.6661,2.7223,62.9781,12.8747,99.3511,29.8417s66.842,37.499,86.707,56.948c9.935,9.727,17.176,19.145,21.194,27.67C286.82,219.591,287.553,227.091,284.737,233.128Z" transform="translate(-19.8802 -30.8884)" style="fill:none;stroke:#000;stroke-width:2px"></path></svg>