<svg xmlns="http://www.w3.org/2000/svg" id="f135ad28-b1b8-4c62-8eb1-4c21fe0f710d" data-name="Layer 1" width="342.2377" height="339.8413" viewBox="0 0 342.2377 339.8413"><polygon points="276.029 232.25 276.611 231.696 340.796 170.564 276.603 108.138 276.034 107.584 276.445 106.904 340.465 1 1.761 1 64.919 106.909 65.321 107.582 64.762 108.133 1.432 170.564 64.754 231.701 65.325 232.251 64.919 232.932 1.761 338.841 340.465 338.841 276.445 232.938 276.029 232.25"></polygon><path d="M65.0383,108.813l.5586-.551-.4018-.673L2.037,1.68H340.741L276.721,107.584l-.411.68.569.554,64.193,62.426-64.185,61.132-.582.554.416.688,64.02,105.903H2.037L65.1951,233.612l.4061-.681-.57-.55L1.7084,171.244Z" transform="translate(-0.2764 -0.6797)" style="fill:none;stroke:#000;stroke-width:2px"></path></svg>