<svg xmlns="http://www.w3.org/2000/svg" xmlns:xlink="http://www.w3.org/1999/xlink" id="Layer_1" x="0px" y="0px" viewBox="0 0 98 116" style="enable-background:new 0 0 98 116;" xml:space="preserve"><g>	<path d="M89.7167,9.7507c-3.4655-4.2833-9.7471-4.9461-14.0303-1.4806L39.1109,37.863c-4.2832,3.4655-4.9461,9.7471-1.4806,14.0303   s9.7471,4.9461,14.0303,1.4806l36.5755-29.593C92.5193,20.3154,93.1823,14.0339,89.7167,9.7507z"></path>	<path d="M11.2696,8.2327c-4.763-0.1154-8.7177,3.6523-8.8329,8.4153L1.2325,66.3801c-0.1153,4.763,3.6524,8.7177,8.4154,8.8329   c4.763,0.1154,8.7177-3.6523,8.8329-8.4153l1.204-49.7321C19.8003,12.3027,16.0326,8.348,11.2696,8.2327z"></path>	<path d="M55.3822,72.2886c-4.2379-2.1772-9.4382-0.5067-11.6155,3.7311L32.2888,98.3613   c-2.1772,4.2379-0.5067,9.4382,3.7311,11.6154c4.2379,2.1772,9.4383,0.5067,11.6155-3.7311l11.4779-22.3414   C61.2905,79.6663,59.6201,74.4658,55.3822,72.2886z"></path></g><path style="fill:none;stroke:#000000;stroke-width:2;" d="M89.7168,9.7506L89.7168,9.7506  c3.4655,4.2832,2.8026,10.5648-1.4806,14.0303L51.6606,53.3739c-4.2832,3.4655-10.5648,2.8026-14.0303-1.4806l0,0  c-3.4655-4.2832-2.8026-10.5648,1.4806-14.0303L75.6865,8.2701C79.9697,4.8046,86.2513,5.4674,89.7168,9.7506z"></path><path style="fill:none;stroke:#000000;stroke-width:2;" d="M11.2696,8.2327L11.2696,8.2327c4.763,0.1153,8.5307,4.07,8.4154,8.833  l-1.2041,49.732c-0.1153,4.763-4.07,8.5307-8.833,8.4154l0,0c-4.763-0.1153-8.5307-4.07-8.4154-8.833l1.2041-49.732  C2.5519,11.8851,6.5066,8.1174,11.2696,8.2327z"></path><path style="fill:none;stroke:#000000;stroke-width:2;" d="M55.3822,72.2887L55.3822,72.2887  c4.2378,2.1772,5.9083,7.3776,3.7311,11.6154l-11.4779,22.3415c-2.1772,4.2379-7.3776,5.9083-11.6154,3.7312l0,0  c-4.2378-2.1772-5.9083-7.3776-3.7311-11.6154l11.4779-22.3415C45.9439,71.7819,51.1443,70.1115,55.3822,72.2887z"></path></svg>