<svg xmlns="http://www.w3.org/2000/svg" id="b593a7b9-8c20-4340-896f-80940d0a4749" data-name="Layer 1" width="181.896" height="269.5404" viewBox="0 0 181.896 269.5404"><path d="M181.197,76.1567c-.202-2.32-.586-4.6259-.932-6.9363l-.131-.8668-.168-.8626-.338-1.7251-.338-1.7251-.169-.8626-.208-.8539c-.564-2.2826-1.083-4.5726-1.793-6.8221l-.498-1.6961c-.166-.5654-.332-1.1308-.537-1.6874l-1.165-3.351a119.6184,119.6184,0,0,0-7.13-15.7556,83.3255,83.3255,0,0,0-9.961-14.4984A55.5481,55.5481,0,0,0,144.081,6.8715,44.9759,44.9759,0,0,0,126.741.9432a32.9886,32.9886,0,0,0-15.819,1.85,26.87,26.87,0,0,0-12.0709,9.4206A21.7928,21.7928,0,0,0,95.63,19.0689a19.1991,19.1991,0,0,0-.4487,7.5989,27.16,27.16,0,0,0,2.1953,7.35,57.757,57.757,0,0,0,3.654,6.7433c2.346,3.82,4.95,7.4862,6.976,11.3012a32.0688,32.0688,0,0,1,2.36,5.9421,24.9431,24.9431,0,0,1,.987,6.1741,15.5011,15.5011,0,0,1-.944,5.9714,10.8679,10.8679,0,0,1-3.532,4.7633,11.9522,11.9522,0,0,1-2.656,1.5235,12.5277,12.5277,0,0,1-1.488.4823c-.259.06-.507.1431-.766.1843l-.787.13a17.3642,17.3642,0,0,1-6.4526-.3945,19.8745,19.8745,0,0,1-5.2363-2.1513c-.2028-.1235-.4093-.2334-.6059-.36l-.58-.3968a12.4568,12.4568,0,0,1-1.121-.8605c-.365-.2991-.7435-.5873-1.1-.8986l-1.0129-.9865-.5064-.4932-.46-.5291-.9234-1.0641c-.2877-.37-.5571-.75-.8374-1.128a13.671,13.671,0,0,1-.8-1.1517l-.748-1.1862c-.2436-.397-.4492-.8177-.6794-1.2257-.4663-.8127-.8433-1.6641-1.2435-2.5074a84.1412,84.1412,0,0,1-3.7389-10.5859c-1.085-3.606-2.0989-7.2606-3.5326-10.86a56.3187,56.3187,0,0,0-7.0566-12.7179,47.24,47.24,0,0,0-7.74-8.162,35.7556,35.7556,0,0,0-9.9235-5.8678,29.9609,29.9609,0,0,0-11.4959-2.0216,28.913,28.913,0,0,0-11.1846,2.5293,33.0042,33.0042,0,0,0-6.4068,3.6854A36.1121,36.1121,0,0,0,12.37,22.708l-1.2067,1.3368L10.0479,25.45c-.388.4576-.71.9623-1.054,1.4514-.3343.4917-.6967.9708-.9857,1.4895a38.3788,38.3788,0,0,0-3.1716,6.3682c-.3984,1.1108-.8262,2.2135-1.128,3.3555-.3605,1.126-.6036,2.2841-.87,3.4309a46.7417,46.7417,0,0,0-.901,7.0232l-.0527.8846-.0111.8863L1.8615,52.115c.06,1.1828.0618,2.3689.1954,3.5523a53.7656,53.7656,0,0,0,1.06,7.0592,72.76,72.76,0,0,0,7.935,20.0965c.8279,1.49,1.7085,2.96,2.6283,4.4023a29.93,29.93,0,0,0-3.0038,1.1222A23.4076,23.4076,0,0,0,7.1632,90.239c-.5676.3453-1.0876.7667-1.621,1.16-.5067.43-1.0206.8483-1.482,1.3247A17.8521,17.8521,0,0,0,0,98.8414v20.8235c.7717,3.0305,1.7383,6.0076,2.7859,8.9321,2.0518,5.742,4.3549,11.314,6.1951,17.002q2.8464,8.622,6.1519,17.121a330.052,330.052,0,0,0,15.1333,33.315c.6085,1.196,1.2059,2.395,1.7764,3.595a67.18,67.18,0,0,1-8.8117,5.963A66.8908,66.8908,0,0,1,2.032,213.1c-.6738.1175-1.354.2036-2.032.3v2.2567l2.4725-.3812c.96-.145,1.9051-.373,2.86-.559a71.7389,71.7389,0,0,0,11.0694-3.338,67.9733,67.9733,0,0,0,16.6194-9.523c.3951.92.7694,1.839,1.1045,2.766a28.239,28.239,0,0,1,1.8608,8.785,15.7054,15.7054,0,0,1-1.8482,8.295,15.3436,15.3436,0,0,1-6.2723,5.884,37.6016,37.6016,0,0,1-13.44,3.74A92.96,92.96,0,0,1,0,231.6759V232.73c.8528.0469,1.7056.0967,2.5583.1273a83.365,83.365,0,0,0,14.706-.643c1.21-.175,2.4094-.391,3.5971-.659a35.2577,35.2577,0,0,0,3.5038-.951,25.0752,25.0752,0,0,0,6.4528-3.085,15.2458,15.2458,0,0,0,6.1554-8.244,19.7822,19.7822,0,0,0,.668-3.404,21.5422,21.5422,0,0,0-.14-5.563,41.19,41.19,0,0,0-3.05-9.586c.4269-.35.8574-.694,1.2708-1.052a66.6214,66.6214,0,0,0,16.5024-21.781,68.6131,68.6131,0,0,0,4.5567-12.797c1.0967-4.395,1.8068-8.817,2.5327-13.22.7162-4.406,1.3956-8.793,2.3085-13.111.15-.722.3161-1.445.4809-2.162,10.5451,8.477,21.3187,16.657,31.7376,25.192q8.7392,7.113,16.975,14.702c.466.429.928.856,1.388,1.288q-1.275,1.1745-2.628,2.284c-1.569,1.296-3.208,2.525-4.895,3.715-3.554,2.517-7.2831,4.87-10.9734,7.311a107.889,107.889,0,0,0-10.703,7.899,74.6775,74.6775,0,0,0-9.2938,9.379,54.93,54.93,0,0,0-7.1226,10.992,39.4137,39.4137,0,0,0-4.0647,17.918,36.0882,36.0882,0,0,0,5.7422,17.908,38.1546,38.1546,0,0,0,2.9013,3.923,36.8535,36.8535,0,0,0,3.4617,3.527,31.0462,31.0462,0,0,0,8.49,5.364,28.5686,28.5686,0,0,0,9.9046,2.208,32.0469,32.0469,0,0,0,9.9262-1.158,44.8228,44.8228,0,0,0,16.757-9.218,60.7035,60.7035,0,0,0,6.647-6.584,65.63,65.63,0,0,0,5.582-7.395,49.4594,49.4594,0,0,0,7.154-16.932,37.6821,37.6821,0,0,0-.757-18.527,51.1132,51.1132,0,0,0-5.344-12.021,81.6107,81.6107,0,0,0-7.836-10.734c-2.933-3.441-6.073-6.686-9.332-9.818.487-.474.956-.938,1.383-1.385a42.884,42.884,0,0,0,5.348-6.619,50.6255,50.6255,0,0,0,3.981-7.405,68.4249,68.4249,0,0,0,4.673-15.973,58.9731,58.9731,0,0,0,.756-7.855,58.6121,58.6121,0,0,0,15.515,3.374,34.3886,34.3886,0,0,0,14.982-1.977,22.9345,22.9345,0,0,0,11.219-9.309,42.1774,42.1774,0,0,0,5.023-13.117l.379-1.694.328-1.698.651-3.399.515-3.421.258-1.713c.073-.573.13-1.145.192-1.721l.375-3.445c.099-1.1489.158-2.3086.241-3.457.199-2.3025.182-4.625.257-6.937A124.3976,124.3976,0,0,0,181.197,76.1567ZM56.7571,152.514c-.6012,3.582-1.211,7.157-2.0188,10.668a66.1389,66.1389,0,0,1-3.23,10.254,64.7555,64.7555,0,0,1-11.2748,18.351,62.5822,62.5822,0,0,1-6.802,6.688c-.034-.087-.0778-.177-.1216-.267-.9208-1.938-1.8919-3.846-2.8459-5.759l-1.4126-2.87-1.3734-2.878c-3.615-7.695-6.8589-15.497-9.859-23.402-1.5-3.953-2.9461-7.969-4.369-11.954-.9543-2.661-1.8559-5.323-2.7734-8.004-.9249-2.692-1.944-5.347-2.9607-7.992a142.0166,142.0166,0,0,1-5.4773-15.955,49.53,49.53,0,0,1-1.6-10.161,22.399,22.399,0,0,1,1.6763-9.8A16.3251,16.3251,0,0,1,8.8052,92.02a24.7058,24.7058,0,0,1,6.2168-2.7024c.1048.155.2084.3146.312.4741q2.3013,3.4065,4.8514,6.6528A153.7794,153.7794,0,0,0,31.09,108.873a294.5563,294.5563,0,0,0,24.5072,22.433q2.1792,1.806,4.3817,3.584C58.5625,140.723,57.7282,146.656,56.7571,152.514Zm3.8949-20.2c-5.7015-4.64-11.3049-9.37-16.6973-14.295l-2.4716-2.265c-.8239-.755-1.6121-1.544-2.4164-2.313l-2.4077-2.326c-.8092-.77-1.5594-1.583-2.3416-2.375-3.1372-3.156-6.1517-6.415-8.9921-9.7919a119.41,119.41,0,0,1-7.7942-10.2324c.3563-.0726.7114-.1407,1.07-.2029,1.239-.2054,2.4877-.3693,3.7508-.4515,1.2643-.0867,2.5455-.0813,3.8146-.1278,1.2739.0131,2.5561.0917,3.8287.1287,1.2771.1355,2.5532.2367,3.8242.3948a78.5239,78.5239,0,0,1,15,3.6456A144.864,144.864,0,0,1,76.6566,105.722c.1942.117.3811.241.57.356-.8278.604-1.6336,1.244-2.399,1.909a39.9939,39.9939,0,0,0-6.6232,7.495A56.5626,56.5626,0,0,0,60.652,132.314Zm65.365,60.295a55.2017,55.2017,0,0,1,9.967,18.835,35.89,35.89,0,0,1,1.316,10.239,37.86,37.86,0,0,1-1.621,10.116,48.8221,48.8221,0,0,1-5.74,12.222c-.595.964-1.273,1.887-1.918,2.823-.336.462-.69.909-1.03,1.366s-.696.908-1.061,1.342a63.5033,63.5033,0,0,1-4.603,5.102,57.168,57.168,0,0,1-5.182,4.55,52.1791,52.1791,0,0,1-5.766,3.842,43.59,43.59,0,0,1-6.336,2.888,34.8229,34.8229,0,0,1-6.8153,1.586,25.7187,25.7187,0,0,1-9.0344-.508,26.379,26.379,0,0,1-8.3159-3.615,34.7566,34.7566,0,0,1-11.6738-13.48,28.22,28.22,0,0,1-1.8762-5.096,32.1738,32.1738,0,0,1-1.1528-7.279,29.5782,29.5782,0,0,1,.0862-3.64c.0543-.602.1576-1.211.234-1.817a16.8459,16.8459,0,0,1,.2951-1.809,45.5608,45.5608,0,0,1,9.1544-19.306,71.1352,71.1352,0,0,1,16.3068-14.953c5.44-3.687,11.1429-6.972,16.4589-11.126,2.047-1.584,4.299-3.494,6.335-5.367A120.7358,120.7358,0,0,1,126.017,192.609Zm2.797-48.65a66.8247,66.8247,0,0,1-2.746,11.597,59.62,59.62,0,0,1-4.833,10.885,47.2477,47.2477,0,0,1-7.167,9.542c-.03.03-.058.057-.086.083-2.581-2.421-5.217-4.78-7.868-7.118-13.4189-11.732-27.7451-22.415-41.6027-33.523q-.8864-.708-1.7617-1.42a68.884,68.884,0,0,1,2.5358-7.868,57.8116,57.8116,0,0,1,2.791-5.919,46.325,46.325,0,0,1,3.579-5.474,36.3536,36.3536,0,0,1,4.4374-4.827,28.9409,28.9409,0,0,1,3.2109-2.552c10.7691,6.755,21.1343,14.236,32,20.905a129.7331,129.7331,0,0,0,17.096,8.918c.312.129.628.26.941.384A55.95,55.95,0,0,1,128.814,143.959ZM81.4429,106.001a29.3888,29.3888,0,0,1,7.624-3.08,32.8517,32.8517,0,0,1,8.4116-.81l1.0706.045a7.9316,7.9316,0,0,1,1.0656.083l2.1333.253,2.111.412a9.3588,9.3588,0,0,1,1.046.252l1.037.284a35.33,35.33,0,0,1,7.887,3.318,31.4922,31.4922,0,0,1,6.63,5.205,28.3759,28.3759,0,0,1,4.817,6.741,34.84,34.84,0,0,1,2.899,7.659,41.78,41.78,0,0,1,1.137,8.067c.007.109.009.216.01.328a154.4442,154.4442,0,0,1-23.995-13.001c-7.0483-4.523-14.0039-9.268-21.0613-13.91C83.3264,107.226,82.3847,106.614,81.4429,106.001Zm97.1961-8.7493c-.233,4.3293-.822,8.6193-1.471,12.8933l-.602,3.183c-.202,1.063-.398,2.127-.637,3.174a59.9165,59.9165,0,0,1-1.703,6.167,32.1125,32.1125,0,0,1-2.564,5.743,24.7276,24.7276,0,0,1-1.724,2.594,20.8342,20.8342,0,0,1-2.087,2.306,19.93,19.93,0,0,1-5.163,3.56,24.7932,24.7932,0,0,1-6.174,1.97,39.366,39.366,0,0,1-13.445-.086,61.411,61.411,0,0,1-11.087-2.959,43.966,43.966,0,0,0-.714-7.096,36.3264,36.3264,0,0,0-7.487-16.66c-7.804-9.467-21.434-14.026-33.1161-11.657-1.1156.273-2.3619.467-3.5794.863-.3074.086-.616.176-.9283.261l-.4678.134-.4521.173c-.599.23-1.1932.461-1.78.684a29.35,29.35,0,0,0-4.1361,2.149A161.788,161.788,0,0,0,56.986,92.6111a96.363,96.363,0,0,0-14.9687-5.1046,66.5179,66.5179,0,0,0-15.7691-2.0241A44.5479,44.5479,0,0,0,16.1007,86.546a87.2,87.2,0,0,1-5.2135-9.3079A65.5085,65.5085,0,0,1,6.4533,65.291,55.5255,55.5255,0,0,1,4.6175,52.898,45.71,45.71,0,0,1,5.738,40.9587a37.3789,37.3789,0,0,1,4.3927-11.0443,34.61,34.61,0,0,1,7.8806-9.0164A32.4037,32.4037,0,0,1,23.1,17.5519a30.4281,30.4281,0,0,1,2.7718-1.312c.4681-.2121.9628-.3489,1.4479-.5273a14.1907,14.1907,0,0,1,1.4686-.4681l1.4953-.3929c.502-.1251,1.0174-.1834,1.5218-.2787a27.4641,27.4641,0,0,1,3.0847-.342c.5177-.0285,1.0414-.0019,1.5578-.0064a15.1753,15.1753,0,0,1,1.5626.0532l.783.0586.7767.1007c.52.06,1.0361.1522,1.551.2493a30.2339,30.2339,0,0,1,11.5035,4.9344A41.9416,41.9416,0,0,1,61.72,28.27a53.3837,53.3837,0,0,1,8.7251,16.362c.6564,1.9629,1.2528,3.9532,1.8529,5.9687a96.6412,96.6412,0,0,0,4.2168,12.087,41.4481,41.4481,0,0,0,3.21,5.81A30.8989,30.8989,0,0,0,84.21,73.6654c.41.4037.89.744,1.3344,1.1182a15.9119,15.9119,0,0,0,1.4018,1.0637,22.0126,22.0126,0,0,0,3.1031,1.7817A22.9514,22.9514,0,0,0,96.94,79.5915a18.0963,18.0963,0,0,0,7.18-.5923,13.9894,13.9894,0,0,0,5.996-3.72,13.6232,13.6232,0,0,0,3.196-5.9776,19.6768,19.6768,0,0,0,.464-6.579,29.3563,29.3563,0,0,0-1.331-6.4142,34.8656,34.8656,0,0,0-2.621-6.0622c-2.135-3.8249-4.611-7.36-6.802-10.9572a47.1513,47.1513,0,0,1-3.891-7.59,20.75,20.75,0,0,1-1.5329-7.9076,17.37,17.37,0,0,1,1.9086-7.6126,22.2964,22.2964,0,0,1,4.9053-6.3654,25.17,25.17,0,0,1,6.94-4.4628,27.1916,27.1916,0,0,1,8.226-1.9927A37.2671,37.2671,0,0,1,136.714,6.11a45.0715,45.0715,0,0,1,11.628,6.8636,59.7444,59.7444,0,0,1,9.4,9.6268,95.9837,95.9837,0,0,1,13.011,23.2584c.4,1.0329.838,2.0468,1.205,3.09l1.074,3.1268c.177.5246.366,1.0429.529,1.5636l.46,1.5838.921,3.1675a119.6711,119.6711,0,0,1,2.64,12.8559,125.198,125.198,0,0,1,1.249,13A129.3265,129.3265,0,0,1,178.639,97.2517Z" transform="translate(0 -0.6987)"></path></svg>