<svg xmlns="http://www.w3.org/2000/svg" id="e2ac72d5-a49a-44f1-922d-beb0112f2923" data-name="Layer 1" width="42.6066" height="53.6416" viewBox="0 0 42.6066 53.6416"><path d="M41.5566,35.4492,6.9551,5.7285A3,3,0,0,0,2,8.0039V51.64a2.9984,2.9984,0,0,0,5.1753,2.0655L19.208,41.0361a1.0043,1.0043,0,0,1,.7246-.31h19.67a3,3,0,0,0,1.9541-5.2764Z" transform="translate(0 -1)" style="fill:#000001"></path><path d="M38.9052,32.2079,4.3032,2.4867A2,2,0,0,0,1,4.0038V47.64a2,2,0,0,0,3.45,1.3773l12.0325-12.669a2,2,0,0,1,1.45-.6227H37.6021A2,2,0,0,0,38.9052,32.2079Z" transform="translate(0 -1)"></path><path d="M1,4.0039V47.64a2,2,0,0,0,3.45,1.3773l12.0325-12.669a2,2,0,0,1,1.45-.6227H37.6021a2,2,0,0,0,1.3031-3.5172L4.3032,2.4867A2,2,0,0,0,1,4.0039Z" transform="translate(0 -1)" style="fill:none;stroke:#000;stroke-width:2px"></path></svg>